<svg width="23" height="14" viewBox="0 0 23 14" fill="none" xmlns="http://www.w3.org/2000/svg">
<path d="M17.19 0.75H5.73C4.21031 0.75 2.75286 1.40848 1.67828 2.58058C0.603695 3.75269 0 5.3424 0 7C0 8.6576 0.603695 10.2473 1.67828 11.4194C2.75286 12.5915 4.21031 13.25 5.73 13.25H17.19C18.7097 13.25 20.1671 12.5915 21.2417 11.4194C22.3163 10.2473 22.92 8.6576 22.92 7C22.92 5.3424 22.3163 3.75269 21.2417 2.58058C20.1671 1.40848 18.7097 0.75 17.19 0.75ZM17.19 10.75C16.2782 10.75 15.4037 10.3549 14.759 9.65165C14.1142 8.94839 13.752 7.99456 13.752 7C13.752 6.00544 14.1142 5.05161 14.759 4.34835C15.4037 3.64509 16.2782 3.25 17.19 3.25C18.1018 3.25 18.9763 3.64509 19.621 4.34835C20.2658 5.05161 20.628 6.00544 20.628 7C20.628 7.99456 20.2658 8.94839 19.621 9.65165C18.9763 10.3549 18.1018 10.75 17.19 10.75Z" fill="black"/>
</svg>
