<svg width="24" height="20" viewBox="0 0 24 20" fill="none" xmlns="http://www.w3.org/2000/svg">
<path d="M16.4224 20C20.3413 18.2811 23.0879 14.5456 23.0879 10C23.0879 5.45444 20.3413 1.71889 16.4224 0V2.22222C19.0746 3.76222 20.8657 6.71889 20.8657 10C20.8657 13.2811 19.0746 16.2378 16.4224 17.7778V20Z" fill="white"/>
<path d="M16.4223 4.44436V15.5555C17.7834 14.3332 18.6445 11.9677 18.6445 9.99991C18.6445 8.03214 17.7834 5.66658 16.4223 4.44436ZM3.08892 15.5555H6.08559L12.4723 19.8132C12.6398 19.9245 12.8343 19.9884 13.0352 19.9982C13.236 20.008 13.4358 19.9633 13.6134 19.8688C13.7907 19.7739 13.9389 19.6325 14.0423 19.46C14.1456 19.2874 14.2001 19.09 14.2 18.8888V1.11103C14.1999 0.910043 14.1453 0.712852 14.042 0.540455C13.9387 0.368057 13.7906 0.22691 13.6134 0.132046C13.4362 0.0371823 13.2366 -0.00784585 13.0358 0.00175769C12.8351 0.0113612 12.6407 0.0752367 12.4734 0.186581L6.08559 4.44436H3.08892C1.86337 4.44436 0.866699 5.44103 0.866699 6.66658V13.3332C0.866699 14.5588 1.86337 15.5555 3.08892 15.5555ZM3.08892 6.66658H6.42225C6.45892 6.66658 6.49003 6.6488 6.52559 6.64547C6.67338 6.6304 6.8168 6.58662 6.94781 6.51658C6.9767 6.49991 7.01114 6.49769 7.03892 6.47991L11.9778 3.18658V16.8132L7.03892 13.5199C7.01114 13.501 6.9767 13.4977 6.94781 13.4832C6.8166 13.4118 6.67216 13.3679 6.52337 13.3544C6.48781 13.351 6.45781 13.3332 6.42225 13.3332H3.08892V6.66658Z" fill="white"/>
</svg>
