<svg width="37" height="46" viewBox="0 0 37 46" fill="none" xmlns="http://www.w3.org/2000/svg">
<path d="M10.4102 41.5801V42.5H5.89258V41.5801H10.4102ZM6.12109 33.9688V42.5H4.99023V33.9688H6.12109ZM9.8125 37.6367V38.5566H5.89258V37.6367H9.8125ZM10.3516 33.9688V34.8945H5.89258V33.9688H10.3516ZM12.7246 37.4199V42.5H11.6348V36.1602H12.666L12.7246 37.4199ZM12.502 39.0898L11.998 39.0723C12.002 38.6387 12.0586 38.2383 12.168 37.8711C12.2773 37.5 12.4395 37.1777 12.6543 36.9043C12.8691 36.6309 13.1367 36.4199 13.457 36.2715C13.7773 36.1191 14.1484 36.043 14.5703 36.043C14.8672 36.043 15.1406 36.0859 15.3906 36.1719C15.6406 36.2539 15.8574 36.3848 16.041 36.5645C16.2246 36.7441 16.3672 36.9746 16.4688 37.2559C16.5703 37.5371 16.6211 37.877 16.6211 38.2754V42.5H15.5371V38.3281C15.5371 37.9961 15.4805 37.7305 15.3672 37.5312C15.2578 37.332 15.1016 37.1875 14.8984 37.0977C14.6953 37.0039 14.457 36.957 14.1836 36.957C13.8633 36.957 13.5957 37.0137 13.3809 37.127C13.166 37.2402 12.9941 37.3965 12.8652 37.5957C12.7363 37.7949 12.6426 38.0234 12.584 38.2812C12.5293 38.5352 12.502 38.8047 12.502 39.0898ZM16.6094 38.4922L15.8828 38.7148C15.8867 38.3672 15.9434 38.0332 16.0527 37.7129C16.166 37.3926 16.3281 37.1074 16.5391 36.8574C16.7539 36.6074 17.0176 36.4102 17.3301 36.2656C17.6426 36.1172 18 36.043 18.4023 36.043C18.7422 36.043 19.043 36.0879 19.3047 36.1777C19.5703 36.2676 19.793 36.4062 19.9727 36.5938C20.1562 36.7773 20.2949 37.0137 20.3887 37.3027C20.4824 37.5918 20.5293 37.9355 20.5293 38.334V42.5H19.4395V38.3223C19.4395 37.9668 19.3828 37.6914 19.2695 37.4961C19.1602 37.2969 19.0039 37.1582 18.8008 37.0801C18.6016 36.998 18.3633 36.957 18.0859 36.957C17.8477 36.957 17.6367 36.998 17.4531 37.0801C17.2695 37.1621 17.1152 37.2754 16.9902 37.4199C16.8652 37.5605 16.7695 37.7227 16.7031 37.9062C16.6406 38.0898 16.6094 38.2852 16.6094 38.4922ZM25.9082 41.416V38.1523C25.9082 37.9023 25.8574 37.6855 25.7559 37.502C25.6582 37.3145 25.5098 37.1699 25.3105 37.0684C25.1113 36.9668 24.8652 36.916 24.5723 36.916C24.2988 36.916 24.0586 36.9629 23.8516 37.0566C23.6484 37.1504 23.4883 37.2734 23.3711 37.4258C23.2578 37.5781 23.2012 37.7422 23.2012 37.918H22.1172C22.1172 37.6914 22.1758 37.4668 22.293 37.2441C22.4102 37.0215 22.5781 36.8203 22.7969 36.6406C23.0195 36.457 23.2852 36.3125 23.5938 36.207C23.9062 36.0977 24.2539 36.043 24.6367 36.043C25.0977 36.043 25.5039 36.1211 25.8555 36.2773C26.2109 36.4336 26.4883 36.6699 26.6875 36.9863C26.8906 37.2988 26.9922 37.6914 26.9922 38.1641V41.1172C26.9922 41.3281 27.0098 41.5527 27.0449 41.791C27.084 42.0293 27.1406 42.2344 27.2148 42.4062V42.5H26.084C26.0293 42.375 25.9863 42.209 25.9551 42.002C25.9238 41.791 25.9082 41.5957 25.9082 41.416ZM26.0957 38.6562L26.1074 39.418H25.0117C24.7031 39.418 24.4277 39.4434 24.1855 39.4941C23.9434 39.541 23.7402 39.6133 23.5762 39.7109C23.4121 39.8086 23.2871 39.9316 23.2012 40.0801C23.1152 40.2246 23.0723 40.3945 23.0723 40.5898C23.0723 40.7891 23.1172 40.9707 23.207 41.1348C23.2969 41.2988 23.4316 41.4297 23.6113 41.5273C23.7949 41.6211 24.0195 41.668 24.2852 41.668C24.6172 41.668 24.9102 41.5977 25.1641 41.457C25.418 41.3164 25.6191 41.1445 25.7676 40.9414C25.9199 40.7383 26.002 40.541 26.0137 40.3496L26.4766 40.8711C26.4492 41.0352 26.375 41.2168 26.2539 41.416C26.1328 41.6152 25.9707 41.8066 25.7676 41.9902C25.5684 42.1699 25.3301 42.3203 25.0527 42.4414C24.7793 42.5586 24.4707 42.6172 24.127 42.6172C23.6973 42.6172 23.3203 42.5332 22.9961 42.3652C22.6758 42.1973 22.4258 41.9727 22.2461 41.6914C22.0703 41.4062 21.9824 41.0879 21.9824 40.7363C21.9824 40.3965 22.0488 40.0977 22.1816 39.8398C22.3145 39.5781 22.5059 39.3613 22.7559 39.1895C23.0059 39.0137 23.3066 38.8809 23.6582 38.791C24.0098 38.7012 24.4023 38.6562 24.8359 38.6562H26.0957ZM29.875 36.1602V42.5H28.7852V36.1602H29.875ZM28.7031 34.4785C28.7031 34.3027 28.7559 34.1543 28.8613 34.0332C28.9707 33.9121 29.1309 33.8516 29.3418 33.8516C29.5488 33.8516 29.707 33.9121 29.8164 34.0332C29.9297 34.1543 29.9863 34.3027 29.9863 34.4785C29.9863 34.6465 29.9297 34.791 29.8164 34.9121C29.707 35.0293 29.5488 35.0879 29.3418 35.0879C29.1309 35.0879 28.9707 35.0293 28.8613 34.9121C28.7559 34.791 28.7031 34.6465 28.7031 34.4785ZM32.793 33.5V42.5H31.7031V33.5H32.793Z" fill="black"/>
<path d="M30.3636 1.5H6.72727C4.11647 1.5 2 3.61647 2 6.22727V22.7727C2 25.3835 4.11647 27.5 6.72727 27.5H30.3636C32.9744 27.5 35.0909 25.3835 35.0909 22.7727V6.22727C35.0909 3.61647 32.9744 1.5 30.3636 1.5Z" stroke="black" stroke-width="3" stroke-linecap="round" stroke-linejoin="round"/>
<path d="M2 3.86377L17.3636 15.682L32.7273 3.86377" stroke="black" stroke-width="3" stroke-linecap="round" stroke-linejoin="round"/>
</svg>
