<svg width="56" height="47" viewBox="0 0 56 47" fill="none" xmlns="http://www.w3.org/2000/svg">
<path d="M2.29395 35.4688V44H1.16309V35.4688H2.29395ZM5.27051 39.0137V44H4.18652V37.6602H5.21191L5.27051 39.0137ZM5.0127 40.5898L4.56152 40.5723C4.56543 40.1387 4.62988 39.7383 4.75488 39.3711C4.87988 39 5.05566 38.6777 5.28223 38.4043C5.50879 38.1309 5.77832 37.9199 6.09082 37.7715C6.40723 37.6191 6.75684 37.543 7.13965 37.543C7.45215 37.543 7.7334 37.5859 7.9834 37.6719C8.2334 37.7539 8.44629 37.8867 8.62207 38.0703C8.80176 38.2539 8.93848 38.4922 9.03223 38.7852C9.12598 39.0742 9.17285 39.4277 9.17285 39.8457V44H8.08301V39.834C8.08301 39.502 8.03418 39.2363 7.93652 39.0371C7.83887 38.834 7.69629 38.6875 7.50879 38.5977C7.32129 38.5039 7.09082 38.457 6.81738 38.457C6.54785 38.457 6.30176 38.5137 6.0791 38.627C5.86035 38.7402 5.6709 38.8965 5.51074 39.0957C5.35449 39.2949 5.23145 39.5234 5.1416 39.7812C5.05566 40.0352 5.0127 40.3047 5.0127 40.5898ZM14.5107 42.3184C14.5107 42.1621 14.4756 42.0176 14.4053 41.8848C14.3389 41.748 14.2002 41.625 13.9893 41.5156C13.7822 41.4023 13.4697 41.3047 13.0518 41.2227C12.7002 41.1484 12.3818 41.0605 12.0967 40.959C11.8154 40.8574 11.5752 40.7344 11.376 40.5898C11.1807 40.4453 11.0303 40.2754 10.9248 40.0801C10.8193 39.8848 10.7666 39.6562 10.7666 39.3945C10.7666 39.1445 10.8213 38.9082 10.9307 38.6855C11.0439 38.4629 11.2021 38.2656 11.4053 38.0938C11.6123 37.9219 11.8604 37.7871 12.1494 37.6895C12.4385 37.5918 12.7607 37.543 13.1162 37.543C13.624 37.543 14.0576 37.6328 14.417 37.8125C14.7764 37.9922 15.0518 38.2324 15.2432 38.5332C15.4346 38.8301 15.5303 39.1602 15.5303 39.5234H14.4463C14.4463 39.3477 14.3936 39.1777 14.2881 39.0137C14.1865 38.8457 14.0361 38.707 13.8369 38.5977C13.6416 38.4883 13.4014 38.4336 13.1162 38.4336C12.8154 38.4336 12.5713 38.4805 12.3838 38.5742C12.2002 38.6641 12.0654 38.7793 11.9795 38.9199C11.8975 39.0605 11.8564 39.209 11.8564 39.3652C11.8564 39.4824 11.876 39.5879 11.915 39.6816C11.958 39.7715 12.0322 39.8555 12.1377 39.9336C12.2432 40.0078 12.3916 40.0781 12.583 40.1445C12.7744 40.2109 13.0186 40.2773 13.3154 40.3438C13.835 40.4609 14.2627 40.6016 14.5986 40.7656C14.9346 40.9297 15.1846 41.1309 15.3486 41.3691C15.5127 41.6074 15.5947 41.8965 15.5947 42.2363C15.5947 42.5137 15.5361 42.7676 15.4189 42.998C15.3057 43.2285 15.1396 43.4277 14.9209 43.5957C14.7061 43.7598 14.4482 43.8887 14.1475 43.9824C13.8506 44.0723 13.5166 44.1172 13.1455 44.1172C12.5869 44.1172 12.1143 44.0176 11.7275 43.8184C11.3408 43.6191 11.0479 43.3613 10.8486 43.0449C10.6494 42.7285 10.5498 42.3945 10.5498 42.043H11.6396C11.6553 42.3398 11.7412 42.5762 11.8975 42.752C12.0537 42.9238 12.2451 43.0469 12.4717 43.1211C12.6982 43.1914 12.9229 43.2266 13.1455 43.2266C13.4424 43.2266 13.6904 43.1875 13.8896 43.1094C14.0928 43.0312 14.2471 42.9238 14.3525 42.7871C14.458 42.6504 14.5107 42.4941 14.5107 42.3184ZM19.6729 37.6602V38.4922H16.2451V37.6602H19.6729ZM17.4053 36.1191H18.4893V42.4297C18.4893 42.6445 18.5225 42.8066 18.5889 42.916C18.6553 43.0254 18.7412 43.0977 18.8467 43.1328C18.9521 43.168 19.0654 43.1855 19.1865 43.1855C19.2764 43.1855 19.3701 43.1777 19.4678 43.1621C19.5693 43.1426 19.6455 43.127 19.6963 43.1152L19.7021 44C19.6162 44.0273 19.5029 44.0527 19.3623 44.0762C19.2256 44.1035 19.0596 44.1172 18.8643 44.1172C18.5986 44.1172 18.3545 44.0645 18.1318 43.959C17.9092 43.8535 17.7314 43.6777 17.5986 43.4316C17.4697 43.1816 17.4053 42.8457 17.4053 42.4238V36.1191ZM24.6826 42.916V39.6523C24.6826 39.4023 24.6318 39.1855 24.5303 39.002C24.4326 38.8145 24.2842 38.6699 24.085 38.5684C23.8857 38.4668 23.6396 38.416 23.3467 38.416C23.0732 38.416 22.833 38.4629 22.626 38.5566C22.4229 38.6504 22.2627 38.7734 22.1455 38.9258C22.0322 39.0781 21.9756 39.2422 21.9756 39.418H20.8916C20.8916 39.1914 20.9502 38.9668 21.0674 38.7441C21.1846 38.5215 21.3525 38.3203 21.5713 38.1406C21.7939 37.957 22.0596 37.8125 22.3682 37.707C22.6807 37.5977 23.0283 37.543 23.4111 37.543C23.8721 37.543 24.2783 37.6211 24.6299 37.7773C24.9854 37.9336 25.2627 38.1699 25.4619 38.4863C25.665 38.7988 25.7666 39.1914 25.7666 39.6641V42.6172C25.7666 42.8281 25.7842 43.0527 25.8193 43.291C25.8584 43.5293 25.915 43.7344 25.9893 43.9062V44H24.8584C24.8037 43.875 24.7607 43.709 24.7295 43.502C24.6982 43.291 24.6826 43.0957 24.6826 42.916ZM24.8701 40.1562L24.8818 40.918H23.7861C23.4775 40.918 23.2021 40.9434 22.96 40.9941C22.7178 41.041 22.5146 41.1133 22.3506 41.2109C22.1865 41.3086 22.0615 41.4316 21.9756 41.5801C21.8896 41.7246 21.8467 41.8945 21.8467 42.0898C21.8467 42.2891 21.8916 42.4707 21.9814 42.6348C22.0713 42.7988 22.2061 42.9297 22.3857 43.0273C22.5693 43.1211 22.7939 43.168 23.0596 43.168C23.3916 43.168 23.6846 43.0977 23.9385 42.957C24.1924 42.8164 24.3936 42.6445 24.542 42.4414C24.6943 42.2383 24.7764 42.041 24.7881 41.8496L25.251 42.3711C25.2236 42.5352 25.1494 42.7168 25.0283 42.916C24.9072 43.1152 24.7451 43.3066 24.542 43.4902C24.3428 43.6699 24.1045 43.8203 23.8271 43.9414C23.5537 44.0586 23.2451 44.1172 22.9014 44.1172C22.4717 44.1172 22.0947 44.0332 21.7705 43.8652C21.4502 43.6973 21.2002 43.4727 21.0205 43.1914C20.8447 42.9062 20.7568 42.5879 20.7568 42.2363C20.7568 41.8965 20.8232 41.5977 20.9561 41.3398C21.0889 41.0781 21.2803 40.8613 21.5303 40.6895C21.7803 40.5137 22.0811 40.3809 22.4326 40.291C22.7842 40.2012 23.1768 40.1562 23.6104 40.1562H24.8701ZM31.5791 37.6602H32.5635V43.8652C32.5635 44.4238 32.4502 44.9004 32.2236 45.2949C31.9971 45.6895 31.6807 45.9883 31.2744 46.1914C30.8721 46.3984 30.4072 46.502 29.8799 46.502C29.6611 46.502 29.4033 46.4668 29.1064 46.3965C28.8135 46.3301 28.5244 46.2148 28.2393 46.0508C27.958 45.8906 27.7217 45.6738 27.5303 45.4004L28.0986 44.7559C28.3643 45.0762 28.6416 45.2988 28.9307 45.4238C29.2236 45.5488 29.5127 45.6113 29.7979 45.6113C30.1416 45.6113 30.4385 45.5469 30.6885 45.418C30.9385 45.2891 31.1318 45.0977 31.2686 44.8438C31.4092 44.5938 31.4795 44.2852 31.4795 43.918V39.0547L31.5791 37.6602ZM27.2139 40.9004V40.7773C27.2139 40.293 27.2705 39.8535 27.3838 39.459C27.501 39.0605 27.667 38.7188 27.8818 38.4336C28.1006 38.1484 28.3643 37.9297 28.6729 37.7773C28.9814 37.6211 29.3291 37.543 29.7158 37.543C30.1143 37.543 30.4619 37.6133 30.7588 37.7539C31.0596 37.8906 31.3135 38.0918 31.5205 38.3574C31.7314 38.6191 31.8975 38.9355 32.0186 39.3066C32.1396 39.6777 32.2236 40.0977 32.2705 40.5664V41.1055C32.2275 41.5703 32.1436 41.9883 32.0186 42.3594C31.8975 42.7305 31.7314 43.0469 31.5205 43.3086C31.3135 43.5703 31.0596 43.7715 30.7588 43.9121C30.458 44.0488 30.1064 44.1172 29.7041 44.1172C29.3252 44.1172 28.9814 44.0371 28.6729 43.877C28.3682 43.7168 28.1064 43.4922 27.8877 43.2031C27.6689 42.9141 27.501 42.5742 27.3838 42.1836C27.2705 41.7891 27.2139 41.3613 27.2139 40.9004ZM28.2979 40.7773V40.9004C28.2979 41.2168 28.3291 41.5137 28.3916 41.791C28.458 42.0684 28.5576 42.3125 28.6904 42.5234C28.8271 42.7344 29.001 42.9004 29.2119 43.0215C29.4229 43.1387 29.6748 43.1973 29.9678 43.1973C30.3271 43.1973 30.624 43.1211 30.8584 42.9688C31.0928 42.8164 31.2783 42.6152 31.415 42.3652C31.5557 42.1152 31.665 41.8438 31.7432 41.5508V40.1387C31.7002 39.9238 31.6338 39.7168 31.5439 39.5176C31.458 39.3145 31.3447 39.1348 31.2041 38.9785C31.0674 38.8184 30.8975 38.6914 30.6943 38.5977C30.4912 38.5039 30.2529 38.457 29.9795 38.457C29.6826 38.457 29.4268 38.5195 29.2119 38.6445C29.001 38.7656 28.8271 38.9336 28.6904 39.1484C28.5576 39.3594 28.458 39.6055 28.3916 39.8867C28.3291 40.1641 28.2979 40.4609 28.2979 40.7773ZM35.2939 38.6562V44H34.21V37.6602H35.2646L35.2939 38.6562ZM37.2744 37.625L37.2686 38.6328C37.1787 38.6133 37.0928 38.6016 37.0107 38.5977C36.9326 38.5898 36.8428 38.5859 36.7412 38.5859C36.4912 38.5859 36.2705 38.625 36.0791 38.7031C35.8877 38.7812 35.7256 38.8906 35.5928 39.0312C35.46 39.1719 35.3545 39.3398 35.2764 39.5352C35.2021 39.7266 35.1533 39.9375 35.1299 40.168L34.8252 40.3438C34.8252 39.9609 34.8623 39.6016 34.9365 39.2656C35.0146 38.9297 35.1338 38.6328 35.2939 38.375C35.4541 38.1133 35.6572 37.9102 35.9033 37.7656C36.1533 37.6172 36.4502 37.543 36.7939 37.543C36.8721 37.543 36.9619 37.5527 37.0635 37.5723C37.165 37.5879 37.2354 37.6055 37.2744 37.625ZM41.7803 42.916V39.6523C41.7803 39.4023 41.7295 39.1855 41.6279 39.002C41.5303 38.8145 41.3818 38.6699 41.1826 38.5684C40.9834 38.4668 40.7373 38.416 40.4443 38.416C40.1709 38.416 39.9307 38.4629 39.7236 38.5566C39.5205 38.6504 39.3604 38.7734 39.2432 38.9258C39.1299 39.0781 39.0732 39.2422 39.0732 39.418H37.9893C37.9893 39.1914 38.0479 38.9668 38.165 38.7441C38.2822 38.5215 38.4502 38.3203 38.6689 38.1406C38.8916 37.957 39.1572 37.8125 39.4658 37.707C39.7783 37.5977 40.126 37.543 40.5088 37.543C40.9697 37.543 41.376 37.6211 41.7275 37.7773C42.083 37.9336 42.3604 38.1699 42.5596 38.4863C42.7627 38.7988 42.8643 39.1914 42.8643 39.6641V42.6172C42.8643 42.8281 42.8818 43.0527 42.917 43.291C42.9561 43.5293 43.0127 43.7344 43.0869 43.9062V44H41.9561C41.9014 43.875 41.8584 43.709 41.8271 43.502C41.7959 43.291 41.7803 43.0957 41.7803 42.916ZM41.9678 40.1562L41.9795 40.918H40.8838C40.5752 40.918 40.2998 40.9434 40.0576 40.9941C39.8154 41.041 39.6123 41.1133 39.4482 41.2109C39.2842 41.3086 39.1592 41.4316 39.0732 41.5801C38.9873 41.7246 38.9443 41.8945 38.9443 42.0898C38.9443 42.2891 38.9893 42.4707 39.0791 42.6348C39.1689 42.7988 39.3037 42.9297 39.4834 43.0273C39.667 43.1211 39.8916 43.168 40.1572 43.168C40.4893 43.168 40.7822 43.0977 41.0361 42.957C41.29 42.8164 41.4912 42.6445 41.6396 42.4414C41.792 42.2383 41.874 42.041 41.8857 41.8496L42.3486 42.3711C42.3213 42.5352 42.2471 42.7168 42.126 42.916C42.0049 43.1152 41.8428 43.3066 41.6396 43.4902C41.4404 43.6699 41.2021 43.8203 40.9248 43.9414C40.6514 44.0586 40.3428 44.1172 39.999 44.1172C39.5693 44.1172 39.1924 44.0332 38.8682 43.8652C38.5479 43.6973 38.2979 43.4727 38.1182 43.1914C37.9424 42.9062 37.8545 42.5879 37.8545 42.2363C37.8545 41.8965 37.9209 41.5977 38.0537 41.3398C38.1865 41.0781 38.3779 40.8613 38.6279 40.6895C38.8779 40.5137 39.1787 40.3809 39.5303 40.291C39.8818 40.2012 40.2744 40.1562 40.708 40.1562H41.9678ZM45.6475 38.9199V44H44.5576V37.6602H45.5889L45.6475 38.9199ZM45.4248 40.5898L44.9209 40.5723C44.9248 40.1387 44.9814 39.7383 45.0908 39.3711C45.2002 39 45.3623 38.6777 45.5771 38.4043C45.792 38.1309 46.0596 37.9199 46.3799 37.7715C46.7002 37.6191 47.0713 37.543 47.4932 37.543C47.79 37.543 48.0635 37.5859 48.3135 37.6719C48.5635 37.7539 48.7803 37.8848 48.9639 38.0645C49.1475 38.2441 49.29 38.4746 49.3916 38.7559C49.4932 39.0371 49.5439 39.377 49.5439 39.7754V44H48.46V39.8281C48.46 39.4961 48.4033 39.2305 48.29 39.0312C48.1807 38.832 48.0244 38.6875 47.8213 38.5977C47.6182 38.5039 47.3799 38.457 47.1064 38.457C46.7861 38.457 46.5186 38.5137 46.3037 38.627C46.0889 38.7402 45.917 38.8965 45.7881 39.0957C45.6592 39.2949 45.5654 39.5234 45.5068 39.7812C45.4521 40.0352 45.4248 40.3047 45.4248 40.5898ZM49.5322 39.9922L48.8057 40.2148C48.8096 39.8672 48.8662 39.5332 48.9756 39.2129C49.0889 38.8926 49.251 38.6074 49.4619 38.3574C49.6768 38.1074 49.9404 37.9102 50.2529 37.7656C50.5654 37.6172 50.9229 37.543 51.3252 37.543C51.665 37.543 51.9658 37.5879 52.2275 37.6777C52.4932 37.7676 52.7158 37.9062 52.8955 38.0938C53.0791 38.2773 53.2178 38.5137 53.3115 38.8027C53.4053 39.0918 53.4521 39.4355 53.4521 39.834V44H52.3623V39.8223C52.3623 39.4668 52.3057 39.1914 52.1924 38.9961C52.083 38.7969 51.9268 38.6582 51.7236 38.5801C51.5244 38.498 51.2861 38.457 51.0088 38.457C50.7705 38.457 50.5596 38.498 50.376 38.5801C50.1924 38.6621 50.0381 38.7754 49.9131 38.9199C49.7881 39.0605 49.6924 39.2227 49.626 39.4062C49.5635 39.5898 49.5322 39.7852 49.5322 39.9922Z" fill="black"/>
<path d="M21.13 0C16.1454 0 12.0908 4.05836 12.0908 9.04419V21.9609C12.0908 26.9454 16.1492 31 21.135 31H34.0517C39.0362 31 43.0908 26.9416 43.0908 21.9558V9.03914C43.0908 4.0546 39.0325 0 34.0466 0H21.13ZM36.6325 5.16667C37.3455 5.16667 37.9242 5.74533 37.9242 6.45833C37.9242 7.17133 37.3455 7.75 36.6325 7.75C35.9195 7.75 35.3408 7.17133 35.3408 6.45833C35.3408 5.74533 35.9195 5.16667 36.6325 5.16667ZM27.5908 7.75C31.8649 7.75 35.3408 11.2259 35.3408 15.5C35.3408 19.7741 31.8649 23.25 27.5908 23.25C23.3167 23.25 19.8408 19.7741 19.8408 15.5C19.8408 11.2259 23.3167 7.75 27.5908 7.75ZM27.5908 10.3333C26.2205 10.3333 24.9064 10.8777 23.9374 11.8466C22.9685 12.8156 22.4242 14.1297 22.4242 15.5C22.4242 16.8703 22.9685 18.1844 23.9374 19.1534C24.9064 20.1223 26.2205 20.6667 27.5908 20.6667C28.9611 20.6667 30.2753 20.1223 31.2442 19.1534C32.2131 18.1844 32.7575 16.8703 32.7575 15.5C32.7575 14.1297 32.2131 12.8156 31.2442 11.8466C30.2753 10.8777 28.9611 10.3333 27.5908 10.3333Z" fill="black"/>
</svg>
