<svg width="695" height="39" viewBox="0 0 695 39" fill="none" xmlns="http://www.w3.org/2000/svg">
<path d="M14.8955 13.198V25.802" stroke="white" stroke-width="2.08333" stroke-linecap="round"/>
<path d="M21.46 7.79626V31.2036" stroke="white" stroke-width="2.08333" stroke-linecap="round"/>
<path d="M1.76855 13.198V25.802" stroke="white" stroke-width="2.08333" stroke-linecap="round"/>
<path d="M28.0234 14.0983V24.9017" stroke="white" stroke-width="2.08333" stroke-linecap="round"/>
<path d="M8.33203 1.49438V37.5057" stroke="white" stroke-width="2.08333" stroke-linecap="round"/>
<path d="M41.5 13.198V25.802" stroke="white" stroke-width="2.08333" stroke-linecap="round"/>
<path d="M48.0645 7.79626V31.2036" stroke="white" stroke-width="2.08333" stroke-linecap="round"/>
<path d="M28.373 13.198V25.802" stroke="white" stroke-width="2.08333" stroke-linecap="round"/>
<path d="M54.6279 14.0983V24.9017" stroke="white" stroke-width="2.08333" stroke-linecap="round"/>
<path d="M34.9365 1.49438V37.5057" stroke="white" stroke-width="2.08333" stroke-linecap="round"/>
<path d="M68.1045 13.198V25.802" stroke="white" stroke-width="2.08333" stroke-linecap="round"/>
<path d="M74.6689 7.79626V31.2036" stroke="white" stroke-width="2.08333" stroke-linecap="round"/>
<path d="M54.9775 13.198V25.802" stroke="white" stroke-width="2.08333" stroke-linecap="round"/>
<path d="M81.2324 14.0983V24.9017" stroke="white" stroke-width="2.08333" stroke-linecap="round"/>
<path d="M61.541 1.49438V37.5057" stroke="white" stroke-width="2.08333" stroke-linecap="round"/>
<path d="M94.71 13.198V25.802" stroke="white" stroke-width="2.08333" stroke-linecap="round"/>
<path d="M101.274 7.79626V31.2036" stroke="white" stroke-width="2.08333" stroke-linecap="round"/>
<path d="M81.583 13.198V25.802" stroke="white" stroke-width="2.08333" stroke-linecap="round"/>
<path d="M107.838 14.0983V24.9017" stroke="white" stroke-width="2.08333" stroke-linecap="round"/>
<path d="M88.1465 1.49438V37.5057" stroke="white" stroke-width="2.08333" stroke-linecap="round"/>
<path d="M121.314 13.198V25.802" stroke="white" stroke-width="2.08333" stroke-linecap="round"/>
<path d="M127.879 7.79626V31.2036" stroke="white" stroke-width="2.08333" stroke-linecap="round"/>
<path d="M108.188 13.198V25.802" stroke="white" stroke-width="2.08333" stroke-linecap="round"/>
<path d="M134.442 14.0983V24.9017" stroke="white" stroke-width="2.08333" stroke-linecap="round"/>
<path d="M114.751 1.49438V37.5057" stroke="white" stroke-width="2.08333" stroke-linecap="round"/>
<path d="M147.919 13.198V25.802" stroke="white" stroke-width="2.08333" stroke-linecap="round"/>
<path d="M154.483 7.79626V31.2036" stroke="white" stroke-width="2.08333" stroke-linecap="round"/>
<path d="M134.792 13.198V25.802" stroke="white" stroke-width="2.08333" stroke-linecap="round"/>
<path d="M161.047 14.0983V24.9017" stroke="white" stroke-width="2.08333" stroke-linecap="round"/>
<path d="M141.355 1.49438V37.5057" stroke="white" stroke-width="2.08333" stroke-linecap="round"/>
<path d="M174.523 13.198V25.802" stroke="white" stroke-width="2.08333" stroke-linecap="round"/>
<path d="M181.088 7.79626V31.2036" stroke="white" stroke-width="2.08333" stroke-linecap="round"/>
<path d="M161.396 13.198V25.802" stroke="white" stroke-width="2.08333" stroke-linecap="round"/>
<path d="M187.651 14.0983V24.9017" stroke="white" stroke-width="2.08333" stroke-linecap="round"/>
<path d="M167.96 1.49438V37.5057" stroke="white" stroke-width="2.08333" stroke-linecap="round"/>
<path d="M201.128 13.198V25.802" stroke="white" stroke-width="2.08333" stroke-linecap="round"/>
<path d="M207.692 7.79626V31.2036" stroke="white" stroke-width="2.08333" stroke-linecap="round"/>
<path d="M188.001 13.198V25.802" stroke="white" stroke-width="2.08333" stroke-linecap="round"/>
<path d="M214.256 14.0983V24.9017" stroke="white" stroke-width="2.08333" stroke-linecap="round"/>
<path d="M194.564 1.49438V37.5057" stroke="white" stroke-width="2.08333" stroke-linecap="round"/>
<path d="M227.733 13.198V25.802" stroke="white" stroke-width="2.08333" stroke-linecap="round"/>
<path d="M234.298 7.79626V31.2036" stroke="white" stroke-width="2.08333" stroke-linecap="round"/>
<path d="M214.606 13.198V25.802" stroke="white" stroke-width="2.08333" stroke-linecap="round"/>
<path d="M240.861 14.0983V24.9017" stroke="white" stroke-width="2.08333" stroke-linecap="round"/>
<path d="M221.17 1.49438V37.5057" stroke="white" stroke-width="2.08333" stroke-linecap="round"/>
<path d="M254.338 13.198V25.802" stroke="white" stroke-width="2.08333" stroke-linecap="round"/>
<path d="M260.902 7.79626V31.2036" stroke="white" stroke-width="2.08333" stroke-linecap="round"/>
<path d="M241.211 13.198V25.802" stroke="white" stroke-width="2.08333" stroke-linecap="round"/>
<path d="M267.466 14.0983V24.9017" stroke="white" stroke-width="2.08333" stroke-linecap="round"/>
<path d="M247.774 1.49438V37.5057" stroke="white" stroke-width="2.08333" stroke-linecap="round"/>
<path d="M280.942 13.198V25.802" stroke="white" stroke-width="2.08333" stroke-linecap="round"/>
<path d="M287.507 7.79626V31.2036" stroke="white" stroke-width="2.08333" stroke-linecap="round"/>
<path d="M267.815 13.198V25.802" stroke="white" stroke-width="2.08333" stroke-linecap="round"/>
<path d="M294.07 14.0983V24.9017" stroke="white" stroke-width="2.08333" stroke-linecap="round"/>
<path d="M274.379 1.49438V37.5057" stroke="white" stroke-width="2.08333" stroke-linecap="round"/>
<path d="M307.547 13.198V25.802" stroke="white" stroke-width="2.08333" stroke-linecap="round"/>
<path d="M314.111 7.79626V31.2036" stroke="white" stroke-width="2.08333" stroke-linecap="round"/>
<path d="M294.42 13.198V25.802" stroke="white" stroke-width="2.08333" stroke-linecap="round"/>
<path d="M320.675 14.0983V24.9017" stroke="white" stroke-width="2.08333" stroke-linecap="round"/>
<path d="M300.983 1.49438V37.5057" stroke="white" stroke-width="2.08333" stroke-linecap="round"/>
<path d="M334.151 13.198V25.802" stroke="white" stroke-width="2.08333" stroke-linecap="round"/>
<path d="M340.716 7.79626V31.2036" stroke="white" stroke-width="2.08333" stroke-linecap="round"/>
<path d="M321.024 13.198V25.802" stroke="white" stroke-width="2.08333" stroke-linecap="round"/>
<path d="M347.279 14.0983V24.9017" stroke="white" stroke-width="2.08333" stroke-linecap="round"/>
<path d="M327.588 1.49438V37.5057" stroke="white" stroke-width="2.08333" stroke-linecap="round"/>
<path d="M360.757 13.198V25.802" stroke="white" stroke-width="2.08333" stroke-linecap="round"/>
<path d="M367.321 7.79626V31.2036" stroke="white" stroke-width="2.08333" stroke-linecap="round"/>
<path d="M347.63 13.198V25.802" stroke="white" stroke-width="2.08333" stroke-linecap="round"/>
<path d="M373.885 14.0983V24.9017" stroke="white" stroke-width="2.08333" stroke-linecap="round"/>
<path d="M354.193 1.49438V37.5057" stroke="white" stroke-width="2.08333" stroke-linecap="round"/>
<path d="M387.361 13.198V25.802" stroke="white" stroke-width="2.08333" stroke-linecap="round"/>
<path d="M393.926 7.79626V31.2036" stroke="white" stroke-width="2.08333" stroke-linecap="round"/>
<path d="M374.234 13.198V25.802" stroke="white" stroke-width="2.08333" stroke-linecap="round"/>
<path d="M400.489 14.0983V24.9017" stroke="white" stroke-width="2.08333" stroke-linecap="round"/>
<path d="M380.798 1.49438V37.5057" stroke="white" stroke-width="2.08333" stroke-linecap="round"/>
<path d="M413.966 13.198V25.802" stroke="white" stroke-width="2.08333" stroke-linecap="round"/>
<path d="M420.53 7.79626V31.2036" stroke="white" stroke-width="2.08333" stroke-linecap="round"/>
<path d="M400.839 13.198V25.802" stroke="white" stroke-width="2.08333" stroke-linecap="round"/>
<path d="M427.094 14.0983V24.9017" stroke="white" stroke-width="2.08333" stroke-linecap="round"/>
<path d="M407.402 1.49438V37.5057" stroke="white" stroke-width="2.08333" stroke-linecap="round"/>
<path d="M440.571 13.198V25.802" stroke="white" stroke-width="2.08333" stroke-linecap="round"/>
<path d="M447.135 7.79626V31.2036" stroke="white" stroke-width="2.08333" stroke-linecap="round"/>
<path d="M427.443 13.198V25.802" stroke="white" stroke-width="2.08333" stroke-linecap="round"/>
<path d="M453.698 14.0983V24.9017" stroke="white" stroke-width="2.08333" stroke-linecap="round"/>
<path d="M434.007 1.49438V37.5057" stroke="white" stroke-width="2.08333" stroke-linecap="round"/>
<path d="M467.175 13.198V25.802" stroke="white" stroke-width="2.08333" stroke-linecap="round"/>
<path d="M473.739 7.79626V31.2036" stroke="white" stroke-width="2.08333" stroke-linecap="round"/>
<path d="M454.048 13.198V25.802" stroke="white" stroke-width="2.08333" stroke-linecap="round"/>
<path d="M480.303 14.0983V24.9017" stroke="white" stroke-width="2.08333" stroke-linecap="round"/>
<path d="M460.611 1.49438V37.5057" stroke="white" stroke-width="2.08333" stroke-linecap="round"/>
<path d="M493.78 13.198V25.802" stroke="white" stroke-width="2.08333" stroke-linecap="round"/>
<path d="M500.345 7.79626V31.2036" stroke="white" stroke-width="2.08333" stroke-linecap="round"/>
<path d="M480.653 13.198V25.802" stroke="white" stroke-width="2.08333" stroke-linecap="round"/>
<path d="M506.908 14.0983V24.9017" stroke="white" stroke-width="2.08333" stroke-linecap="round"/>
<path d="M487.217 1.49438V37.5057" stroke="white" stroke-width="2.08333" stroke-linecap="round"/>
<path d="M520.385 13.198V25.802" stroke="white" stroke-width="2.08333" stroke-linecap="round"/>
<path d="M526.949 7.79626V31.2036" stroke="white" stroke-width="2.08333" stroke-linecap="round"/>
<path d="M507.258 13.198V25.802" stroke="white" stroke-width="2.08333" stroke-linecap="round"/>
<path d="M533.513 14.0983V24.9017" stroke="white" stroke-width="2.08333" stroke-linecap="round"/>
<path d="M513.821 1.49438V37.5057" stroke="white" stroke-width="2.08333" stroke-linecap="round"/>
<path d="M546.989 13.198V25.802" stroke="white" stroke-width="2.08333" stroke-linecap="round"/>
<path d="M553.554 7.79626V31.2036" stroke="white" stroke-width="2.08333" stroke-linecap="round"/>
<path d="M533.862 13.198V25.802" stroke="white" stroke-width="2.08333" stroke-linecap="round"/>
<path d="M560.117 14.0983V24.9017" stroke="white" stroke-width="2.08333" stroke-linecap="round"/>
<path d="M540.426 1.49438V37.5057" stroke="white" stroke-width="2.08333" stroke-linecap="round"/>
<path d="M573.594 13.198V25.802" stroke="white" stroke-width="2.08333" stroke-linecap="round"/>
<path d="M580.158 7.79626V31.2036" stroke="white" stroke-width="2.08333" stroke-linecap="round"/>
<path d="M560.467 13.198V25.802" stroke="white" stroke-width="2.08333" stroke-linecap="round"/>
<path d="M586.722 14.0983V24.9017" stroke="white" stroke-width="2.08333" stroke-linecap="round"/>
<path d="M567.03 1.49438V37.5057" stroke="white" stroke-width="2.08333" stroke-linecap="round"/>
<path d="M600.198 13.198V25.802" stroke="white" stroke-width="2.08333" stroke-linecap="round"/>
<path d="M606.763 7.79626V31.2036" stroke="white" stroke-width="2.08333" stroke-linecap="round"/>
<path d="M587.071 13.198V25.802" stroke="white" stroke-width="2.08333" stroke-linecap="round"/>
<path d="M613.326 14.0983V24.9017" stroke="white" stroke-width="2.08333" stroke-linecap="round"/>
<path d="M593.635 1.49438V37.5057" stroke="white" stroke-width="2.08333" stroke-linecap="round"/>
<path d="M626.804 13.198V25.802" stroke="white" stroke-width="2.08333" stroke-linecap="round"/>
<path d="M633.368 7.79626V31.2036" stroke="white" stroke-width="2.08333" stroke-linecap="round"/>
<path d="M613.677 13.198V25.802" stroke="white" stroke-width="2.08333" stroke-linecap="round"/>
<path d="M639.932 14.0983V24.9017" stroke="white" stroke-width="2.08333" stroke-linecap="round"/>
<path d="M620.24 1.49438V37.5057" stroke="white" stroke-width="2.08333" stroke-linecap="round"/>
<path d="M653.408 13.198V25.802" stroke="white" stroke-width="2.08333" stroke-linecap="round"/>
<path d="M659.973 7.79626V31.2036" stroke="white" stroke-width="2.08333" stroke-linecap="round"/>
<path d="M640.281 13.198V25.802" stroke="white" stroke-width="2.08333" stroke-linecap="round"/>
<path d="M666.536 14.0983V24.9017" stroke="white" stroke-width="2.08333" stroke-linecap="round"/>
<path d="M646.845 1.49438V37.5057" stroke="white" stroke-width="2.08333" stroke-linecap="round"/>
<path d="M680.013 13.198V25.802" stroke="white" stroke-width="2.08333" stroke-linecap="round"/>
<path d="M686.577 7.79626V31.2036" stroke="white" stroke-width="2.08333" stroke-linecap="round"/>
<path d="M666.886 13.198V25.802" stroke="white" stroke-width="2.08333" stroke-linecap="round"/>
<path d="M693.141 14.0983V24.9017" stroke="white" stroke-width="2.08333" stroke-linecap="round"/>
<path d="M673.449 1.49438V37.5057" stroke="white" stroke-width="2.08333" stroke-linecap="round"/>
</svg>
