<svg width="35" height="19" viewBox="0 0 35 19" fill="none" xmlns="http://www.w3.org/2000/svg">
<path d="M25.4545 0H9.54545C4.27955 0 0 4.25917 0 9.5C0 14.7408 4.27955 19 9.54545 19H25.4545C30.7205 19 35 14.7408 35 9.5C35 4.25917 30.7205 0 25.4545 0ZM25.4545 15.8333H9.54545C6.02955 15.8333 3.18182 12.9992 3.18182 9.5C3.18182 6.00083 6.02955 3.16667 9.54545 3.16667H25.4545C28.9705 3.16667 31.8182 6.00083 31.8182 9.5C31.8182 12.9992 28.9705 15.8333 25.4545 15.8333ZM9.54545 4.75C6.90455 4.75 4.77273 6.87167 4.77273 9.5C4.77273 12.1283 6.90455 14.25 9.54545 14.25C12.1864 14.25 14.3182 12.1283 14.3182 9.5C14.3182 6.87167 12.1864 4.75 9.54545 4.75Z" fill="black"/>
</svg>
