<svg width="173" height="172" viewBox="0 0 173 172" fill="none" xmlns="http://www.w3.org/2000/svg">
<path d="M86.5 0C109.309 0 131.183 9.06069 147.311 25.1888C163.439 41.3169 172.5 63.1914 172.5 86C172.5 108.809 163.439 130.683 147.311 146.811C131.183 162.939 109.309 172 86.5 172C63.6914 172 41.8169 162.939 25.6888 146.811C9.56069 130.683 0.5 108.809 0.5 86C0.5 63.1914 9.56069 41.3169 25.6888 25.1888C41.8169 9.06069 63.6914 0 86.5 0ZM75.7868 102.967L56.6826 83.85C55.9977 83.1651 55.1846 82.6218 54.2898 82.2512C53.3949 81.8805 52.4359 81.6898 51.4673 81.6898C50.4987 81.6898 49.5396 81.8805 48.6448 82.2512C47.75 82.6218 46.9369 83.1651 46.252 83.85C44.8688 85.2332 44.0918 87.1092 44.0918 89.0653C44.0918 91.0214 44.8688 92.8974 46.252 94.2806L70.5777 118.606C71.2607 119.295 72.0731 119.841 72.9682 120.214C73.8633 120.587 74.8234 120.778 75.793 120.778C76.7626 120.778 77.7227 120.587 78.6178 120.214C79.5129 119.841 80.3253 119.295 81.0083 118.606L131.38 68.2226C132.074 67.5405 132.626 66.7278 133.004 65.8313C133.383 64.9348 133.58 63.9723 133.584 62.9993C133.589 62.0262 133.401 61.0619 133.031 60.1619C132.661 59.2619 132.116 58.4441 131.428 57.7557C130.741 57.0672 129.924 56.5217 129.024 56.1506C128.125 55.7795 127.16 55.5902 126.187 55.5936C125.214 55.597 124.252 55.793 123.355 56.1703C122.458 56.5476 121.644 57.0988 120.961 57.792L75.7868 102.967Z" fill="#4BC401"/>
</svg>
