<svg width="15" height="16" viewBox="0 0 15 16" fill="none" xmlns="http://www.w3.org/2000/svg">
<path d="M0.833333 8.83333H5.83333C6.29167 8.83333 6.66667 8.45833 6.66667 8V1.33333C6.66667 0.875 6.29167 0.5 5.83333 0.5H0.833333C0.375 0.5 0 0.875 0 1.33333V8C0 8.45833 0.375 8.83333 0.833333 8.83333ZM0.833333 15.5H5.83333C6.29167 15.5 6.66667 15.125 6.66667 14.6667V11.3333C6.66667 10.875 6.29167 10.5 5.83333 10.5H0.833333C0.375 10.5 0 10.875 0 11.3333V14.6667C0 15.125 0.375 15.5 0.833333 15.5ZM9.16667 15.5H14.1667C14.625 15.5 15 15.125 15 14.6667V8C15 7.54167 14.625 7.16667 14.1667 7.16667H9.16667C8.70833 7.16667 8.33333 7.54167 8.33333 8V14.6667C8.33333 15.125 8.70833 15.5 9.16667 15.5ZM8.33333 1.33333V4.66667C8.33333 5.125 8.70833 5.5 9.16667 5.5H14.1667C14.625 5.5 15 5.125 15 4.66667V1.33333C15 0.875 14.625 0.5 14.1667 0.5H9.16667C8.70833 0.5 8.33333 0.875 8.33333 1.33333Z" fill="#7B7B7B"/>
</svg>
