<svg width="23" height="20" viewBox="0 0 23 20" fill="none" xmlns="http://www.w3.org/2000/svg">
<path d="M22.327 4.0986C21.9806 3.29655 21.4812 2.56975 20.8566 1.95886C20.2316 1.34616 19.4946 0.85925 18.6859 0.524616C17.8472 0.176245 16.9477 -0.002072 16.0396 1.81642e-05C14.7656 1.81642e-05 13.5226 0.348889 12.4424 1.00787C12.1839 1.1655 11.9384 1.33865 11.7059 1.5273C11.4733 1.33865 11.2278 1.1655 10.9693 1.00787C9.88914 0.348889 8.64613 1.81642e-05 7.3721 1.81642e-05C6.4547 1.81642e-05 5.56573 0.175746 4.72586 0.524616C3.91441 0.860566 3.18307 1.34382 2.5551 1.95886C1.92971 2.56906 1.43013 3.29604 1.08468 4.0986C0.725472 4.93331 0.541992 5.8197 0.541992 6.73193C0.541992 7.59248 0.71772 8.4892 1.06659 9.40144C1.35861 10.1638 1.77725 10.9546 2.31219 11.7531C3.15981 13.0168 4.3253 14.3347 5.77247 15.6708C8.17063 17.8855 10.5455 19.4153 10.6463 19.4773L11.2588 19.8701C11.5301 20.0433 11.879 20.0433 12.1503 19.8701L12.7628 19.4773C12.8636 19.4127 15.2359 17.8855 17.6367 15.6708C19.0838 14.3347 20.2493 13.0168 21.0969 11.7531C21.6319 10.9546 22.0531 10.1638 22.3425 9.40144C22.6914 8.4892 22.8671 7.59248 22.8671 6.73193C22.8697 5.8197 22.6862 4.93331 22.327 4.0986Z" fill="#D31111"/>
</svg>
