<svg width="16" height="20" viewBox="0 0 16 20" fill="none" xmlns="http://www.w3.org/2000/svg">
<path d="M8.26882 2.72727V0L4.63246 3.63636L8.26882 7.27273V4.54545C11.2779 4.54545 13.7234 6.99091 13.7234 10C13.7234 10.9182 13.4961 11.7909 13.087 12.5455L14.4143 13.8727C15.1509 12.7154 15.5419 11.3719 15.5415 10C15.5415 5.98182 12.287 2.72727 8.26882 2.72727ZM8.26882 15.4545C5.25973 15.4545 2.81428 13.0091 2.81428 10C2.81428 9.08182 3.04155 8.20909 3.45064 7.45455L2.12337 6.12727C1.38678 7.28463 0.995712 8.62813 0.996094 10C0.996094 14.0182 4.25064 17.2727 8.26882 17.2727V20L11.9052 16.3636L8.26882 12.7273V15.4545Z" fill="white"/>
</svg>
