<svg width="14" height="14" viewBox="0 0 14 14" fill="none" xmlns="http://www.w3.org/2000/svg">
<path d="M12.5038 10.9998C12.1598 10.6703 11.8249 10.3313 11.4997 9.98332C11.2264 9.7057 11.0619 9.50373 11.0619 9.50373L9.00525 8.52177C9.82864 7.58802 10.2831 6.386 10.2833 5.14112C10.2833 2.30689 7.97692 0 5.14166 0C2.3064 0 0 2.30689 0 5.14112C0 7.97534 2.3064 10.2822 5.14166 10.2822C6.43662 10.2822 7.617 9.7975 8.52267 9.00504L9.50472 11.0615C9.50472 11.0615 9.70672 11.226 9.98437 11.4992C10.2686 11.7658 10.6425 12.1264 11.0009 12.5032L11.9984 13.5255L12.4421 14L14 12.4422L13.5255 11.9986C13.2471 11.7254 12.8754 11.3626 12.5038 10.9998ZM5.14166 8.81335C3.11658 8.81335 1.46905 7.16598 1.46905 5.14112C1.46905 3.11625 3.11658 1.46889 5.14166 1.46889C7.16674 1.46889 8.81427 3.11625 8.81427 5.14112C8.81427 7.16598 7.16674 8.81335 5.14166 8.81335Z" fill="black" fill-opacity="0.5"/>
</svg>
