<svg width="21" height="21" viewBox="0 0 21 21" fill="none" xmlns="http://www.w3.org/2000/svg">
<path d="M12.0026 20.8333H8.21096C7.97339 20.8334 7.74294 20.7522 7.55784 20.6033C7.37273 20.4544 7.24409 20.2467 7.19325 20.0146L6.76929 18.0521C6.20373 17.8043 5.66745 17.4944 5.17033 17.1281L3.25679 17.7375C3.0303 17.8097 2.78591 17.8023 2.56421 17.7165C2.34251 17.6306 2.15685 17.4715 2.03804 17.2656L0.138043 13.9833C0.0204858 13.7772 -0.0236421 13.5373 0.0128786 13.3029C0.0493993 13.0684 0.164406 12.8533 0.339084 12.6927L1.82346 11.3385C1.75596 10.7251 1.75596 10.1061 1.82346 9.49271L0.339084 8.14167C0.164159 7.98101 0.0489954 7.7657 0.0124688 7.53102C-0.0240579 7.29634 0.0202191 7.05622 0.138043 6.85L2.03388 3.56562C2.15268 3.3597 2.33835 3.20062 2.56004 3.11478C2.78174 3.02894 3.02613 3.02152 3.25263 3.09375L5.16617 3.70312C5.42033 3.51562 5.68492 3.34062 5.95783 3.18229C6.22138 3.03437 6.49221 2.9 6.76929 2.78021L7.19429 0.819792C7.24489 0.587706 7.37328 0.379883 7.5582 0.23078C7.74311 0.0816769 7.97342 0.000249965 8.21096 0H12.0026C12.2402 0.000249965 12.4705 0.0816769 12.6554 0.23078C12.8403 0.379883 12.9687 0.587706 13.0193 0.819792L13.4485 2.78125C13.7401 2.91042 14.0255 3.05521 14.3016 3.21667C14.5589 3.36562 14.8078 3.52917 15.0474 3.70521L16.962 3.09583C17.1884 3.02387 17.4325 3.03143 17.654 3.11725C17.8755 3.20307 18.0609 3.36201 18.1797 3.56771L20.0755 6.85208C20.3172 7.27604 20.2339 7.8125 19.8745 8.14271L18.3901 9.49687C18.4576 10.1103 18.4576 10.7293 18.3901 11.3427L19.8745 12.6969C20.2339 13.0281 20.3172 13.5635 20.0755 13.9875L18.1797 17.2719C18.0609 17.4778 17.8752 17.6369 17.6535 17.7227C17.4318 17.8086 17.1875 17.816 16.961 17.7437L15.0474 17.1344C14.5507 17.5004 14.0147 17.8099 13.4495 18.0573L13.0193 20.0146C12.9685 20.2465 12.84 20.4541 12.6551 20.603C12.4702 20.7519 12.24 20.8331 12.0026 20.8333ZM10.1026 6.25C8.99756 6.25 7.93775 6.68899 7.15635 7.47039C6.37495 8.25179 5.93596 9.3116 5.93596 10.4167C5.93596 11.5217 6.37495 12.5815 7.15635 13.3629C7.93775 14.1443 8.99756 14.5833 10.1026 14.5833C11.2077 14.5833 12.2675 14.1443 13.0489 13.3629C13.8303 12.5815 14.2693 11.5217 14.2693 10.4167C14.2693 9.3116 13.8303 8.25179 13.0489 7.47039C12.2675 6.68899 11.2077 6.25 10.1026 6.25Z" fill="black"/>
</svg>
