<svg width="22" height="19" viewBox="0 0 22 19" fill="none" xmlns="http://www.w3.org/2000/svg">
<path d="M21.4893 3.9247C21.162 3.16698 20.6902 2.48034 20.1001 1.90322C19.5096 1.32437 18.8134 0.864375 18.0493 0.548235C17.257 0.219117 16.4072 0.0506548 15.5493 0.0526295C14.3457 0.0526295 13.1714 0.382219 12.1509 1.00478C11.9067 1.1537 11.6748 1.31728 11.4551 1.4955C11.2354 1.31728 11.0034 1.1537 10.7593 1.00478C9.73877 0.382219 8.56445 0.0526295 7.36084 0.0526295C6.49414 0.0526295 5.6543 0.218645 4.86084 0.548235C4.09424 0.865618 3.40332 1.32216 2.81006 1.90322C2.21923 2.47969 1.74726 3.16649 1.4209 3.9247C1.08154 4.71327 0.908203 5.55068 0.908203 6.41249C0.908203 7.22548 1.07422 8.07265 1.40381 8.93447C1.67969 9.65468 2.0752 10.4018 2.58057 11.1561C3.38135 12.35 4.48242 13.5951 5.84961 14.8573C8.11523 16.9496 10.3589 18.3949 10.4541 18.4535L11.0327 18.8246C11.2891 18.9882 11.6187 18.9882 11.875 18.8246L12.4536 18.4535C12.5488 18.3925 14.79 16.9496 17.0581 14.8573C18.4253 13.5951 19.5264 12.35 20.3271 11.1561C20.8325 10.4018 21.2305 9.65468 21.5039 8.93447C21.8335 8.07265 21.9995 7.22548 21.9995 6.41249C22.002 5.55068 21.8286 4.71327 21.4893 3.9247Z" fill="white"/>
</svg>
