<svg width="22" height="19" viewBox="0 0 22 19" fill="none" xmlns="http://www.w3.org/2000/svg">
<path d="M21.4897 3.92476C21.1625 3.16704 20.6906 2.4804 20.1006 1.90328C19.5101 1.32443 18.8139 0.864436 18.0498 0.548296C17.2575 0.219178 16.4077 0.0507159 15.5498 0.0526905C14.3462 0.0526905 13.1719 0.38228 12.1514 1.00484C11.9072 1.15376 11.6753 1.31734 11.4556 1.49556C11.2358 1.31734 11.0039 1.15376 10.7598 1.00484C9.73926 0.38228 8.56494 0.0526905 7.36133 0.0526905C6.49463 0.0526905 5.65479 0.218706 4.86133 0.548296C4.09473 0.865679 3.40381 1.32222 2.81055 1.90328C2.21972 2.47975 1.74775 3.16655 1.42139 3.92476C1.08203 4.71334 0.908691 5.55074 0.908691 6.41255C0.908691 7.22554 1.07471 8.07271 1.4043 8.93453C1.68018 9.65474 2.07568 10.4018 2.58105 11.1562C3.38184 12.3501 4.48291 13.5952 5.8501 14.8574C8.11572 16.9497 10.3594 18.395 10.4546 18.4536L11.0332 18.8247C11.2896 18.9882 11.6191 18.9882 11.8755 18.8247L12.4541 18.4536C12.5493 18.3925 14.7905 16.9497 17.0586 14.8574C18.4258 13.5952 19.5269 12.3501 20.3276 11.1562C20.833 10.4018 21.231 9.65474 21.5044 8.93453C21.834 8.07271 22 7.22554 22 6.41255C22.0024 5.55074 21.8291 4.71334 21.4897 3.92476V3.92476Z" fill="white"/>
</svg>
