<svg width="694" height="39" viewBox="0 0 694 39" fill="none" xmlns="http://www.w3.org/2000/svg">
<path d="M14.3958 13.198V25.802" stroke="white" stroke-width="2.08333" stroke-linecap="round"/>
<path d="M20.9594 7.79626V31.2036" stroke="white" stroke-width="2.08333" stroke-linecap="round"/>
<path d="M1.26849 13.198V25.802" stroke="white" stroke-width="2.08333" stroke-linecap="round"/>
<path d="M27.5231 14.0983V24.9017" stroke="white" stroke-width="2.08333" stroke-linecap="round"/>
<path d="M7.83215 1.49438V37.5057" stroke="white" stroke-width="2.08333" stroke-linecap="round"/>
<path d="M41.0004 13.198V25.802" stroke="white" stroke-width="2.08333" stroke-linecap="round"/>
<path d="M47.5641 7.79626V31.2036" stroke="white" stroke-width="2.08333" stroke-linecap="round"/>
<path d="M27.8731 13.198V25.802" stroke="white" stroke-width="2.08333" stroke-linecap="round"/>
<path d="M54.1278 14.0983V24.9017" stroke="white" stroke-width="2.08333" stroke-linecap="round"/>
<path d="M34.4368 1.49438V37.5057" stroke="white" stroke-width="2.08333" stroke-linecap="round"/>
<path d="M67.6052 13.198V25.802" stroke="white" stroke-width="2.08333" stroke-linecap="round"/>
<path d="M74.1689 7.79626V31.2036" stroke="white" stroke-width="2.08333" stroke-linecap="round"/>
<path d="M54.4779 13.198V25.802" stroke="white" stroke-width="2.08333" stroke-linecap="round"/>
<path d="M80.7325 14.0983V24.9017" stroke="white" stroke-width="2.08333" stroke-linecap="round"/>
<path d="M61.0415 1.49438V37.5057" stroke="white" stroke-width="2.08333" stroke-linecap="round"/>
<path d="M94.2098 13.198V25.802" stroke="white" stroke-width="2.08333" stroke-linecap="round"/>
<path d="M100.773 7.79626V31.2036" stroke="white" stroke-width="2.08333" stroke-linecap="round"/>
<path d="M81.0825 13.198V25.802" stroke="white" stroke-width="2.08333" stroke-linecap="round"/>
<path d="M107.337 14.0983V24.9017" stroke="white" stroke-width="2.08333" stroke-linecap="round"/>
<path d="M87.6462 1.49438V37.5057" stroke="white" stroke-width="2.08333" stroke-linecap="round"/>
<path d="M120.815 13.198V25.802" stroke="white" stroke-width="2.08333" stroke-linecap="round"/>
<path d="M127.378 7.79626V31.2036" stroke="white" stroke-width="2.08333" stroke-linecap="round"/>
<path d="M107.687 13.198V25.802" stroke="white" stroke-width="2.08333" stroke-linecap="round"/>
<path d="M133.942 14.0983V24.9017" stroke="white" stroke-width="2.08333" stroke-linecap="round"/>
<path d="M114.251 1.49438V37.5057" stroke="white" stroke-width="2.08333" stroke-linecap="round"/>
<path d="M147.419 13.198V25.802" stroke="white" stroke-width="2.08333" stroke-linecap="round"/>
<path d="M153.983 7.79626V31.2036" stroke="white" stroke-width="2.08333" stroke-linecap="round"/>
<path d="M134.292 13.198V25.802" stroke="white" stroke-width="2.08333" stroke-linecap="round"/>
<path d="M160.547 14.0983V24.9017" stroke="white" stroke-width="2.08333" stroke-linecap="round"/>
<path d="M140.856 1.49438V37.5057" stroke="white" stroke-width="2.08333" stroke-linecap="round"/>
<path d="M174.024 13.198V25.802" stroke="white" stroke-width="2.08333" stroke-linecap="round"/>
<path d="M180.588 7.79626V31.2036" stroke="white" stroke-width="2.08333" stroke-linecap="round"/>
<path d="M160.897 13.198V25.802" stroke="white" stroke-width="2.08333" stroke-linecap="round"/>
<path d="M187.151 14.0983V24.9017" stroke="white" stroke-width="2.08333" stroke-linecap="round"/>
<path d="M167.46 1.49438V37.5057" stroke="white" stroke-width="2.08333" stroke-linecap="round"/>
<path d="M200.629 13.198V25.802" stroke="white" stroke-width="2.08333" stroke-linecap="round"/>
<path d="M207.192 7.79626V31.2036" stroke="white" stroke-width="2.08333" stroke-linecap="round"/>
<path d="M187.501 13.198V25.802" stroke="white" stroke-width="2.08333" stroke-linecap="round"/>
<path d="M213.756 14.0983V24.9017" stroke="white" stroke-width="2.08333" stroke-linecap="round"/>
<path d="M194.065 1.49438V37.5057" stroke="white" stroke-width="2.08333" stroke-linecap="round"/>
<path d="M227.233 13.198V25.802" stroke="white" stroke-width="2.08333" stroke-linecap="round"/>
<path d="M233.797 7.79626V31.2036" stroke="white" stroke-width="2.08333" stroke-linecap="round"/>
<path d="M214.106 13.198V25.802" stroke="white" stroke-width="2.08333" stroke-linecap="round"/>
<path d="M240.361 14.0983V24.9017" stroke="white" stroke-width="2.08333" stroke-linecap="round"/>
<path d="M220.67 1.49438V37.5057" stroke="white" stroke-width="2.08333" stroke-linecap="round"/>
<path d="M253.838 13.198V25.802" stroke="white" stroke-width="2.08333" stroke-linecap="round"/>
<path d="M260.402 7.79626V31.2036" stroke="white" stroke-width="2.08333" stroke-linecap="round"/>
<path d="M240.711 13.198V25.802" stroke="white" stroke-width="2.08333" stroke-linecap="round"/>
<path d="M266.965 14.0983V24.9017" stroke="white" stroke-width="2.08333" stroke-linecap="round"/>
<path d="M247.274 1.49438V37.5057" stroke="white" stroke-width="2.08333" stroke-linecap="round"/>
<path d="M280.443 13.198V25.802" stroke="white" stroke-width="2.08333" stroke-linecap="round"/>
<path d="M287.006 7.79626V31.2036" stroke="white" stroke-width="2.08333" stroke-linecap="round"/>
<path d="M267.315 13.198V25.802" stroke="white" stroke-width="2.08333" stroke-linecap="round"/>
<path d="M293.57 14.0983V24.9017" stroke="white" stroke-width="2.08333" stroke-linecap="round"/>
<path d="M273.879 1.49438V37.5057" stroke="white" stroke-width="2.08333" stroke-linecap="round"/>
<path d="M307.047 13.198V25.802" stroke="white" stroke-width="2.08333" stroke-linecap="round"/>
<path d="M313.611 7.79626V31.2036" stroke="white" stroke-width="2.08333" stroke-linecap="round"/>
<path d="M293.92 13.198V25.802" stroke="white" stroke-width="2.08333" stroke-linecap="round"/>
<path d="M320.175 14.0983V24.9017" stroke="white" stroke-width="2.08333" stroke-linecap="round"/>
<path d="M300.484 1.49438V37.5057" stroke="white" stroke-width="2.08333" stroke-linecap="round"/>
<path d="M333.652 13.198V25.802" stroke="white" stroke-width="2.08333" stroke-linecap="round"/>
<path d="M340.216 7.79626V31.2036" stroke="white" stroke-width="2.08333" stroke-linecap="round"/>
<path d="M320.525 13.198V25.802" stroke="white" stroke-width="2.08333" stroke-linecap="round"/>
<path d="M346.779 14.0983V24.9017" stroke="white" stroke-width="2.08333" stroke-linecap="round"/>
<path d="M327.088 1.49438V37.5057" stroke="white" stroke-width="2.08333" stroke-linecap="round"/>
<path d="M360.257 13.198V25.802" stroke="white" stroke-width="2.08333" stroke-linecap="round"/>
<path d="M366.82 7.79626V31.2036" stroke="white" stroke-width="2.08333" stroke-linecap="round"/>
<path d="M347.13 13.198V25.802" stroke="white" stroke-width="2.08333" stroke-linecap="round"/>
<path d="M373.384 14.0983V24.9017" stroke="white" stroke-width="2.08333" stroke-linecap="round"/>
<path d="M353.693 1.49438V37.5057" stroke="white" stroke-width="2.08333" stroke-linecap="round"/>
<path d="M386.861 13.198V25.802" stroke="white" stroke-width="2.08333" stroke-linecap="round"/>
<path d="M393.425 7.79626V31.2036" stroke="white" stroke-width="2.08333" stroke-linecap="round"/>
<path d="M373.734 13.198V25.802" stroke="white" stroke-width="2.08333" stroke-linecap="round"/>
<path d="M399.989 14.0983V24.9017" stroke="white" stroke-width="2.08333" stroke-linecap="round"/>
<path d="M380.298 1.49438V37.5057" stroke="white" stroke-width="2.08333" stroke-linecap="round"/>
<path d="M413.466 13.198V25.802" stroke="white" stroke-width="2.08333" stroke-linecap="round"/>
<path d="M420.03 7.79626V31.2036" stroke="white" stroke-width="2.08333" stroke-linecap="round"/>
<path d="M400.339 13.198V25.802" stroke="white" stroke-width="2.08333" stroke-linecap="round"/>
<path d="M426.594 14.0983V24.9017" stroke="white" stroke-width="2.08333" stroke-linecap="round"/>
<path d="M406.902 1.49438V37.5057" stroke="white" stroke-width="2.08333" stroke-linecap="round"/>
<path d="M440.071 13.198V25.802" stroke="white" stroke-width="2.08333" stroke-linecap="round"/>
<path d="M446.635 7.79626V31.2036" stroke="white" stroke-width="2.08333" stroke-linecap="round"/>
<path d="M426.943 13.198V25.802" stroke="white" stroke-width="2.08333" stroke-linecap="round"/>
<path d="M453.198 14.0983V24.9017" stroke="white" stroke-width="2.08333" stroke-linecap="round"/>
<path d="M433.507 1.49438V37.5057" stroke="white" stroke-width="2.08333" stroke-linecap="round"/>
<path d="M466.676 13.198V25.802" stroke="white" stroke-width="2.08333" stroke-linecap="round"/>
<path d="M473.239 7.79626V31.2036" stroke="white" stroke-width="2.08333" stroke-linecap="round"/>
<path d="M453.548 13.198V25.802" stroke="white" stroke-width="2.08333" stroke-linecap="round"/>
<path d="M479.803 14.0983V24.9017" stroke="white" stroke-width="2.08333" stroke-linecap="round"/>
<path d="M460.112 1.49438V37.5057" stroke="white" stroke-width="2.08333" stroke-linecap="round"/>
<path d="M493.28 13.198V25.802" stroke="white" stroke-width="2.08333" stroke-linecap="round"/>
<path d="M499.844 7.79626V31.2036" stroke="white" stroke-width="2.08333" stroke-linecap="round"/>
<path d="M480.153 13.198V25.802" stroke="white" stroke-width="2.08333" stroke-linecap="round"/>
<path d="M506.408 14.0983V24.9017" stroke="white" stroke-width="2.08333" stroke-linecap="round"/>
<path d="M486.717 1.49438V37.5057" stroke="white" stroke-width="2.08333" stroke-linecap="round"/>
<path d="M519.885 13.198V25.802" stroke="white" stroke-width="2.08333" stroke-linecap="round"/>
<path d="M526.449 7.79626V31.2036" stroke="white" stroke-width="2.08333" stroke-linecap="round"/>
<path d="M506.758 13.198V25.802" stroke="white" stroke-width="2.08333" stroke-linecap="round"/>
<path d="M533.012 14.0983V24.9017" stroke="white" stroke-width="2.08333" stroke-linecap="round"/>
<path d="M513.321 1.49438V37.5057" stroke="white" stroke-width="2.08333" stroke-linecap="round"/>
<path d="M546.49 13.198V25.802" stroke="white" stroke-width="2.08333" stroke-linecap="round"/>
<path d="M553.053 7.79626V31.2036" stroke="white" stroke-width="2.08333" stroke-linecap="round"/>
<path d="M533.362 13.198V25.802" stroke="white" stroke-width="2.08333" stroke-linecap="round"/>
<path d="M559.617 14.0983V24.9017" stroke="white" stroke-width="2.08333" stroke-linecap="round"/>
<path d="M539.926 1.49438V37.5057" stroke="white" stroke-width="2.08333" stroke-linecap="round"/>
<path d="M573.094 13.198V25.802" stroke="white" stroke-width="2.08333" stroke-linecap="round"/>
<path d="M579.658 7.79626V31.2036" stroke="white" stroke-width="2.08333" stroke-linecap="round"/>
<path d="M559.967 13.198V25.802" stroke="white" stroke-width="2.08333" stroke-linecap="round"/>
<path d="M586.222 14.0983V24.9017" stroke="white" stroke-width="2.08333" stroke-linecap="round"/>
<path d="M566.531 1.49438V37.5057" stroke="white" stroke-width="2.08333" stroke-linecap="round"/>
<path d="M599.699 13.198V25.802" stroke="white" stroke-width="2.08333" stroke-linecap="round"/>
<path d="M606.263 7.79626V31.2036" stroke="white" stroke-width="2.08333" stroke-linecap="round"/>
<path d="M586.572 13.198V25.802" stroke="white" stroke-width="2.08333" stroke-linecap="round"/>
<path d="M612.826 14.0983V24.9017" stroke="white" stroke-width="2.08333" stroke-linecap="round"/>
<path d="M593.135 1.49438V37.5057" stroke="white" stroke-width="2.08333" stroke-linecap="round"/>
<path d="M626.304 13.198V25.802" stroke="white" stroke-width="2.08333" stroke-linecap="round"/>
<path d="M632.867 7.79626V31.2036" stroke="white" stroke-width="2.08333" stroke-linecap="round"/>
<path d="M613.176 13.198V25.802" stroke="white" stroke-width="2.08333" stroke-linecap="round"/>
<path d="M639.431 14.0983V24.9017" stroke="white" stroke-width="2.08333" stroke-linecap="round"/>
<path d="M619.74 1.49438V37.5057" stroke="white" stroke-width="2.08333" stroke-linecap="round"/>
<path d="M652.908 13.198V25.802" stroke="white" stroke-width="2.08333" stroke-linecap="round"/>
<path d="M659.472 7.79626V31.2036" stroke="white" stroke-width="2.08333" stroke-linecap="round"/>
<path d="M639.781 13.198V25.802" stroke="white" stroke-width="2.08333" stroke-linecap="round"/>
<path d="M666.036 14.0983V24.9017" stroke="white" stroke-width="2.08333" stroke-linecap="round"/>
<path d="M646.345 1.49438V37.5057" stroke="white" stroke-width="2.08333" stroke-linecap="round"/>
<path d="M679.513 13.198V25.802" stroke="white" stroke-width="2.08333" stroke-linecap="round"/>
<path d="M686.077 7.79626V31.2036" stroke="white" stroke-width="2.08333" stroke-linecap="round"/>
<path d="M666.386 13.198V25.802" stroke="white" stroke-width="2.08333" stroke-linecap="round"/>
<path d="M692.64 14.0983V24.9017" stroke="white" stroke-width="2.08333" stroke-linecap="round"/>
<path d="M672.949 1.49438V37.5057" stroke="white" stroke-width="2.08333" stroke-linecap="round"/>
</svg>
